<svg xmlns="http://www.w3.org/2000/svg" height="48" viewBox="0 96 960 960" width="48"><path d="M480.029 1000q-87.093 0-164.461-34.019-77.368-34.02-134.663-91.29-57.296-57.27-91.1-134.448Q56 663.066 56 576.001q0-87.065 34.237-164.545 34.237-77.48 91.237-134.468Q238.473 220 315.72 185.5 392.966 151 480.109 151q87.142 0 164.528 34.737 77.387 34.737 134.375 91.737 56.988 57 91.488 134.246Q905 488.966 905 576.109q0 87.142-34.737 164.529-34.737 77.386-91.737 134.374Q721.526 932 644.324 966t-164.295 34ZM456 907l-16-18q-6-6-8.577-13.779-2.577-7.78-2.577-18.099V625.561q-37.146-4-61.496-30.368T343 533.596v-38.157L220 370q-34.933 43.024-53.967 95.168Q147 517.312 147 575.747q0 133.014 89.394 227.633Q325.788 898 456 907Zm75-2q119.85-20.173 200.925-112.708Q813 699.756 813 575.508q0-138-96.986-235.254Q619.027 243 479.81 243q-44.354 0-84.979 11.383-40.624 11.384-76.831 31.463V354h143.212q21.435 0 41.112 9.5Q522 373 535 389l57.263 70.776h59.638q21.003 0 35.551 15.253Q702 490.282 702 511.177v45.555q0 10.177-2.5 21.222-2.5 11.046-7.629 19.252L531 834.964V905Z"/></svg>